<svg width="133" height="70" viewBox="0 0 133 70" fill="none" xmlns="http://www.w3.org/2000/svg">
<path fill-rule="evenodd" clip-rule="evenodd" d="M25.774 0.488C25.645 0.771 25.516 2.596 25.516 4.6C25.516 4.85264 25.5166 5.08846 25.5172 5.30862C25.5218 7.14127 25.5237 7.88881 25.1539 8.2153C24.8991 8.44021 24.4679 8.46529 23.7397 8.50765C23.6107 8.51516 23.4723 8.5232 23.324 8.533L22.294 8.61L22.164 11.155L22.035 13.699L20.849 13.982C18.269 14.65 16.849 16.577 17.057 19.276C17.185 21.203 18.087 22.617 19.636 23.363C20.745 23.876 21.106 23.901 30.882 23.901C36.427 23.901 41.019 23.98 41.07 24.081C41.121 24.211 39.96 33.489 38.49 44.721C37.046 55.951 35.808 65.718 35.782 66.387C35.731 68.004 36.608 69.007 38.13 69.007C39.367 69.007 40.142 68.367 40.451 67.107C40.581 66.593 41.947 56.773 43.469 45.285C44.991 33.822 46.332 24.416 46.409 24.416C46.513 24.416 47.493 25.829 48.602 27.552C48.7843 27.8389 48.9532 28.1067 49.111 28.3569C50.2457 30.1563 50.802 31.0385 51.6016 31.469C52.3707 31.8831 53.3649 31.8791 55.3156 31.8714C55.6014 31.8702 55.9078 31.869 56.237 31.869H60.596V37.499L55.463 37.576C50.743 37.653 50.253 37.703 49.582 38.191C48.009 39.348 47.957 39.606 47.957 49.168C47.957 58.702 47.983 58.96 49.479 60.218L50.33 60.913H81.695L82.546 60.217C84.042 58.96 84.066 58.702 84.066 49.167C84.066 39.607 84.016 39.348 82.444 38.191C81.773 37.703 81.283 37.653 76.562 37.576L71.43 37.499V31.869H75.79C76.1191 31.869 76.4253 31.8702 76.7111 31.8714C78.6606 31.8791 79.6544 31.8831 80.4233 31.4692C81.2228 31.0388 81.7791 30.1567 82.9138 28.3572C83.0716 28.107 83.2406 27.839 83.423 27.552C84.533 25.829 85.513 24.416 85.617 24.416C85.693 24.416 87.035 33.822 88.557 45.285C90.079 56.773 91.446 66.593 91.575 67.106C91.885 68.366 92.657 69.008 93.896 69.008C95.417 69.008 96.296 68.004 96.243 66.387C96.217 65.717 94.979 55.951 93.533 44.721C92.065 33.489 90.903 24.211 90.956 24.081C91.006 23.98 95.597 23.901 101.146 23.901C110.92 23.901 111.281 23.876 112.389 23.363C113.937 22.617 114.839 21.203 114.969 19.276C115.175 16.577 113.757 14.65 111.177 13.982L109.99 13.699L109.863 11.155L109.733 8.61L108.702 8.533C108.554 8.5232 108.415 8.51515 108.286 8.50764C107.558 8.46528 107.126 8.44019 106.871 8.21514C106.5 7.8881 106.502 7.13881 106.507 5.30063C106.507 5.08276 106.508 4.84958 106.508 4.6C106.508 2.596 106.38 0.771 106.251 0.488C106.045 0.128 105.708 0 104.884 0C104.265 0 103.646 0.128 103.464 0.309C103.258 0.514 103.154 1.774 103.154 4.241C103.154 6.708 103.052 7.968 102.845 8.173C102.665 8.353 101.944 8.481 101.195 8.481C99.57 8.481 99.545 8.533 99.545 11.591V13.878H32.48V11.591C32.48 8.533 32.456 8.481 30.83 8.481C30.082 8.481 29.36 8.352 29.18 8.173C28.973 7.968 28.87 6.708 28.87 4.241C28.87 1.774 28.767 0.514 28.56 0.309C28.38 0.129 27.76 0 27.142 0C26.317 0 25.982 0.128 25.774 0.488ZM12.052 0.258C6.50699 0.745 1.83799 1.85 0.574994 2.93C0.182677 3.26472 0.00353561 3.41756 0.000348501 3.57399C-0.00232978 3.70544 0.119248 3.83942 0.342994 4.086C0.986994 4.806 4.05599 5.731 7.58999 6.323C11.588 6.991 20.1 7.016 21.314 6.374C22.525 5.706 22.938 4.96 22.938 3.393C22.938 1.774 22.318 0.977 20.72 0.54C19.274 0.154 14.94 0 12.052 0.258ZM74.783 46.776C74.009 44.001 71.506 41.507 68.617 40.608C66.604 39.966 65.316 39.966 63.304 40.608C60.493 41.506 57.991 44.053 57.243 46.776C56.804 48.32 56.934 50.992 57.526 52.56C58.223 54.435 60.208 56.569 62.093 57.495C63.382 58.137 63.846 58.214 66.013 58.214C68.18 58.214 68.644 58.137 69.934 57.495C71.814 56.57 73.803 54.435 74.499 52.56C75.093 50.992 75.222 48.319 74.783 46.776Z" fill="#363636"/>
<path fill-rule="evenodd" clip-rule="evenodd" d="M109.346 1.77405C109.758 1.05305 110.996 0.514052 112.776 0.283052C115.046 -0.0249477 116.053 -0.0249477 119.534 0.258052C125.492 0.745052 130.11 1.80005 131.45 2.93005C132.173 3.54605 132.173 3.54605 131.683 4.08605C131.038 4.80605 127.969 5.73105 124.435 6.32305C122.37 6.68205 120.229 6.81105 116.568 6.81105C111.152 6.81105 110.428 6.65605 109.5 5.34605C109.036 4.67805 108.959 2.54405 109.346 1.77405ZM31.579 3.59805C31.579 1.28505 32.172 0.822052 36.092 0.154052H36.091C36.995 5.22994e-05 42.516 0.232052 44.991 0.540052C49.143 1.05405 52.78 2.03005 54.045 2.93005C55.668 4.13805 51.207 5.86005 44.347 6.68205C41.019 7.06805 35.397 7.01605 33.847 6.55405C32.042 6.01405 31.579 5.42305 31.579 3.59805ZM60.725 50.1681C60.287 48.0871 61.757 45.3631 63.794 44.438H63.793C64.387 44.181 65.367 43.9491 66.013 43.9491C68.437 43.9491 70.603 45.6971 71.171 48.0871C71.711 50.3231 70.706 52.7121 68.721 53.87C65.548 55.7211 61.499 53.8451 60.725 50.1681ZM89.484 0.258052C83.165 0.848052 77.62 2.33905 77.62 3.44405C77.62 5.16605 85.46 6.91405 93.25 6.93905C99.054 6.93905 100.446 6.29705 100.446 3.59905C100.446 1.77405 99.827 0.977052 98.073 0.514052C96.423 0.103052 92.398 5.2318e-05 89.484 0.258052Z" fill="#363636"/>
</svg>
